<?xml version="1.0" encoding="UTF-8"?>
<svg version="1.1" xmlns="http://www.w3.org/2000/svg" width="250" height="250">
<path d="M0 0 C82.5 0 165 0 250 0 C250 82.5 250 165 250 250 C167.5 250 85 250 0 250 C0 167.5 0 85 0 0 Z " fill="#F7F8F2" transform="translate(0,0)"/>
<path d="M0 0 C82.5 0 165 0 250 0 C250 82.5 250 165 250 250 C167.5 250 85 250 0 250 C0 167.5 0 85 0 0 Z M95 14 C94.34064453 14.19335938 93.68128906 14.38671875 93.00195312 14.5859375 C62.3475856 23.77374053 38.04184765 44.59837458 22.8125 72.55859375 C10.46191637 96.00873206 6.40900331 125.6890977 12.89453125 151.5703125 C23.40701561 184.18501662 42.37867159 210.79407523 72.91015625 226.96484375 C99.64899238 240.55301682 130.75754416 243.20898544 159.36279297 234.10107422 C192.00339025 223.01207076 214.90575558 200.60108778 230 170 C234.33528813 161.16634081 236.10135746 151.59264284 238 142 C238.19464844 141.05640625 238.38929688 140.1128125 238.58984375 139.140625 C242.3027615 110.7102834 234.7303351 81.50579322 218.02734375 58.25390625 C216.08132332 55.77398757 214.06527726 53.38118965 212 51 C211.33613281 50.19175781 210.67226562 49.38351563 209.98828125 48.55078125 C192.13953584 27.53479081 165.17181184 14.3176987 138 11 C133.39163439 10.71605156 128.80376617 10.66536267 124.1875 10.6875 C122.95281982 10.69313965 121.71813965 10.6987793 120.44604492 10.70458984 C111.58369365 10.82259096 103.52817209 11.42986595 95 14 Z " fill="#F8F7F3" transform="translate(0,0)"/>
<path d="M0 0 C22.56485774 18.85674736 37.59592296 45.60555275 41 75 C43.27938976 106.38503874 35.14996067 137.23958242 14.39501953 161.421875 C-4.65079297 182.96757539 -27.97024469 195.45280428 -56 201 C-56.95132813 201.1959375 -57.90265625 201.391875 -58.8828125 201.59375 C-87.55276413 205.3301848 -116.40482084 197.60690696 -139.875 180.9609375 C-142.32020151 179.04298257 -144.6657288 177.05096649 -147 175 C-147.80566406 174.33742187 -148.61132812 173.67484375 -149.44140625 172.9921875 C-169.76502925 155.75368411 -183.3649725 129.28303004 -187 103 C-187.29979383 98.10112046 -187.33398584 93.21955839 -187.3125 88.3125 C-187.31034485 87.64570221 -187.3081897 86.97890442 -187.30596924 86.29190063 C-187.25528378 76.53377707 -186.90113829 67.39052657 -184 58 C-183.79600586 57.32759277 -183.59201172 56.65518555 -183.38183594 55.96240234 C-177.49625501 36.93064394 -167.62857348 21.47723923 -154 7 C-153.19175781 6.09507813 -153.19175781 6.09507813 -152.3671875 5.171875 C-139.44822147 -8.72088244 -121.0400189 -17.9708923 -103 -23 C-101.91332031 -23.3196875 -100.82664062 -23.639375 -99.70703125 -23.96875 C-64.62311335 -32.68926354 -27.52973359 -22.57365803 0 0 Z M-132 17 C-132.60714844 17.4434375 -133.21429688 17.886875 -133.83984375 18.34375 C-149.9402609 30.76948371 -161.13258628 53.167695 -164 73 C-164.75659097 86.36185502 -165.12564735 100.1542344 -161 113 C-160.80664062 113.62487305 -160.61328125 114.24974609 -160.4140625 114.89355469 C-155.73032818 129.73260801 -148.02447442 141.95677648 -137 153 C-136.24203125 153.76957031 -135.4840625 154.53914062 -134.703125 155.33203125 C-128.18335417 161.58547157 -120.94797975 165.86741304 -113 170 C-111.66001953 170.72703125 -111.66001953 170.72703125 -110.29296875 171.46875 C-91.65568834 180.85896194 -66.59857763 182.2027158 -46.86328125 175.70703125 C-34.69384269 171.4117684 -24.20568558 165.91847629 -14 158 C-13.04287109 157.27683594 -13.04287109 157.27683594 -12.06640625 156.5390625 C-3.5418941 149.72732762 2.84017145 140.51701711 8 131 C8.5259375 130.0409375 9.051875 129.081875 9.59375 128.09375 C13.03357187 121.55134371 15.43805862 115.21921687 17 108 C17.16773926 107.27723877 17.33547852 106.55447754 17.50830078 105.80981445 C22.57865166 82.74402253 17.75599993 59.90376314 6.0859375 39.68359375 C-8.18569605 17.42325696 -28.67267514 3.39693074 -54.07421875 -3.10546875 C-82.3363435 -9.11488896 -109.89119063 -0.65712017 -132 17 Z " fill="#050606" transform="translate(198,37)"/>
<path d="M0 0 C2.72314838 2.16194629 5.32060436 4.39672626 7.88671875 6.7421875 C8.675625 7.46148437 9.46453125 8.18078125 10.27734375 8.921875 C27.78396206 25.65439114 40.3807881 50.09213633 41.3203125 74.50390625 C41.34369197 76.81238198 41.34449279 79.12118241 41.32421875 81.4296875 C41.31285889 83.26116333 41.31285889 83.26116333 41.30126953 85.12963867 C40.79433672 113.15710286 29.20717775 138.60049281 9.33544922 158.27832031 C-9.70368646 176.39766194 -35.17609649 186.40387169 -61.36328125 186.1796875 C-62.62744873 186.17138916 -63.89161621 186.16309082 -65.1940918 186.15454102 C-91.8780669 185.67551482 -114.99228512 175.31036571 -134.11328125 156.7421875 C-134.87125 156.05769531 -135.62921875 155.37320313 -136.41015625 154.66796875 C-145.57305248 146.1211983 -152.02722774 135.1243593 -157.11328125 123.7421875 C-157.47035156 122.94554687 -157.82742187 122.14890625 -158.1953125 121.328125 C-168.23116393 97.64802612 -167.94283296 69.61054521 -158.71704102 45.74731445 C-153.28575181 32.52140441 -145.97331643 21.0814085 -136.11328125 10.7421875 C-135.28441406 9.87078125 -134.45554687 8.999375 -133.6015625 8.1015625 C-97.39047925 -27.16681261 -40.34950976 -29.26225425 0 0 Z M-121.11328125 12.7421875 C-121.72042969 13.185625 -122.32757813 13.6290625 -122.953125 14.0859375 C-139.05354215 26.51167121 -150.24586753 48.9098825 -153.11328125 68.7421875 C-153.86987222 82.10404252 -154.2389286 95.8964219 -150.11328125 108.7421875 C-149.91992188 109.36706055 -149.7265625 109.99193359 -149.52734375 110.63574219 C-144.84360943 125.47479551 -137.13775567 137.69896398 -126.11328125 148.7421875 C-125.3553125 149.51175781 -124.59734375 150.28132812 -123.81640625 151.07421875 C-117.29663542 157.32765907 -110.061261 161.60960054 -102.11328125 165.7421875 C-100.77330078 166.46921875 -100.77330078 166.46921875 -99.40625 167.2109375 C-80.76896959 176.60114944 -55.71185888 177.9449033 -35.9765625 171.44921875 C-23.80712394 167.1539559 -13.31896683 161.66066379 -3.11328125 153.7421875 C-2.15615234 153.01902344 -2.15615234 153.01902344 -1.1796875 152.28125 C7.34482465 145.46951512 13.7268902 136.25920461 18.88671875 126.7421875 C19.41265625 125.783125 19.93859375 124.8240625 20.48046875 123.8359375 C23.92029062 117.29353121 26.32477737 110.96140437 27.88671875 103.7421875 C28.05445801 103.01942627 28.22219727 102.29666504 28.39501953 101.55200195 C33.46537041 78.48621003 28.64271868 55.64595064 16.97265625 35.42578125 C2.7010227 13.16544446 -17.78595639 -0.86088176 -43.1875 -7.36328125 C-71.44962475 -13.37270146 -99.00447188 -4.91493267 -121.11328125 12.7421875 Z " fill="#AC5724" transform="translate(187.11328125,41.2578125)"/>
<path d="M0 0 C21.27759262 17.57421416 33.14877295 38.43374628 39 65.25 C39.26828613 66.43553467 39.26828613 66.43553467 39.54199219 67.64501953 C43.96917074 92.82518751 37.8822749 120.22515667 24.1875 141.625 C22.82559075 143.52478391 21.42817472 145.39951556 20 147.25 C19.39913574 148.03383057 19.39913574 148.03383057 18.78613281 148.83349609 C8.57136158 161.99408561 -3.21585192 171.64025594 -18 179.25 C-18.87785156 179.72050781 -19.75570312 180.19101563 -20.66015625 180.67578125 C-29.27961821 184.97885113 -38.68985778 186.98115125 -48 189.25 C-48.93670532 189.52154907 -48.93670532 189.52154907 -49.89233398 189.79858398 C-74.90542484 195.1558416 -102.37046697 187.32722404 -123.72265625 174.375 C-136.51042416 166.08352713 -147.90874854 155.18818471 -156 142.25 C-156.89332031 140.84621094 -156.89332031 140.84621094 -157.8046875 139.4140625 C-172.87895401 114.76472542 -176.44105572 86.13697774 -170.265625 58.17578125 C-166.34021209 42.0660113 -158.31299388 28.10663499 -148 15.25 C-147.33484375 14.40566406 -146.6696875 13.56132813 -145.984375 12.69140625 C-109.92072275 -30.32344615 -43.19660494 -33.19175747 0 0 Z M-145.71484375 17.3046875 C-156.46510125 30.27147192 -163.05325881 44.98212978 -167 61.25 C-167.24492187 62.15363281 -167.48984375 63.05726562 -167.7421875 63.98828125 C-170.72016006 76.77724559 -170.34913537 92.59068957 -167 105.25 C-166.80535156 106.09691406 -166.61070312 106.94382812 -166.41015625 107.81640625 C-161.85543465 126.33175384 -153.27743545 141.57657086 -140 155.25 C-139.32710937 155.99636719 -138.65421875 156.74273437 -137.9609375 157.51171875 C-122.77170899 173.81027294 -99.20635716 185.14958836 -76.91064453 186.42700195 C-55.60217374 186.92168286 -55.60217374 186.92168286 -35 182.25 C-33.9171875 181.899375 -32.834375 181.54875 -31.71875 181.1875 C-4.8390075 171.79263854 15.60925308 152.65920451 28 127.25 C29.98925167 122.98659105 31.60361888 118.74203484 33 114.25 C33.29197266 113.32888428 33.29197266 113.32888428 33.58984375 112.38916016 C39.77560291 92.06813273 39.30659074 69.16573355 32 49.25 C31.64711914 48.27305176 31.64711914 48.27305176 31.28710938 47.27636719 C21.58120344 21.13994005 1.3951943 0.85541228 -23.6015625 -10.890625 C-66.51886381 -29.82067721 -115.14781321 -17.85694631 -145.71484375 17.3046875 Z " fill="#1A1A21" transform="translate(191,40.75)"/>
<path d="M0 0 C0.33 0 0.66 0 1 0 C1.15855469 0.79921875 1.31710938 1.5984375 1.48046875 2.421875 C5.093967 19.4312701 11.33809783 32.11707507 26 42 C28.59622437 43.4914184 31.23545482 44.89953587 33.875 46.3125 C44.80165866 52.18697848 56.00118324 60.50390471 59.75 72.875 C59.99234375 73.65617187 60.2346875 74.43734375 60.484375 75.2421875 C60.65453125 75.82226562 60.8246875 76.40234375 61 77 C60.34 77 59.68 77 59 77 C58.4225 76.25492187 57.845 75.50984375 57.25 74.7421875 C50.85989339 66.95424507 40.03047775 63.46820498 30.75 60.375 C18.77614847 56.36324613 9.84901873 52.14107047 3 41 C-3.50887852 27.07553352 -4.85783802 14.68917687 0 0 Z " fill="#B05A28" transform="translate(108,60)"/>
<path d="M0 0 C5.15055847 1.78288562 7.56506082 4.13012164 10 9 C10.60140736 13.20985151 10.31135221 15.36484149 8.4375 19.1875 C4.85684439 23.3190257 1.47251762 25.59632365 -4.0625 26.5 C-8.81865449 25.69044179 -11.77187243 23.43281549 -14.875 19.8125 C-16.48942639 15.77643403 -16.92637226 12.27444209 -16 8 C-11.92653814 1.2980964 -7.83643389 -0.78949147 0 0 Z " fill="#B15B27" transform="translate(149,77)"/>
<path d="M0 0 C1.5478418 -0.04930664 1.5478418 -0.04930664 3.12695312 -0.09960938 C10.64678325 -0.15328759 10.64678325 -0.15328759 14.01953125 2.83984375 C15.3125 5.4375 15.3125 5.4375 15.3125 7.4375 C14.65765625 7.64503906 14.0028125 7.85257812 13.328125 8.06640625 C6.71638612 10.29833505 0.97465336 13.18781504 -4.9609375 16.8515625 C-9.48993377 19.48590704 -13.39139537 21.3201841 -18.6875 20.4375 C-22.31236836 17.20663907 -23.47321531 15.65892275 -24.3125 10.875 C-23.50908336 6.45620847 -22.26854725 5.10423732 -18.6875 2.4375 C-12.51952893 0.1204315 -6.54077755 0.03718699 0 0 Z " fill="#191F2D" transform="translate(103.6875,108.5625)"/>
<path d="M0 0 C0.33 0.66 0.66 1.32 1 2 C2.65 1.67 4.3 1.34 6 1 C6 5.62 6 10.24 6 15 C3.525 14.505 3.525 14.505 1 14 C0.67 14.33 0.34 14.66 0 15 C-2.375 15.25 -2.375 15.25 -5 15 C-6.8125 13.5 -6.8125 13.5 -8 12 C-8.4125 12.515625 -8.825 13.03125 -9.25 13.5625 C-9.8275 14.036875 -10.405 14.51125 -11 15 C-13.1875 14.6875 -13.1875 14.6875 -15 14 C-13.68 12.35 -12.36 10.7 -11 9 C-11.309375 8.236875 -11.61875 7.47375 -11.9375 6.6875 C-12.67893593 4.81210323 -13.36228217 2.91315348 -14 1 C-11.5625 1.375 -11.5625 1.375 -9 2 C-8.67 2.66 -8.34 3.32 -8 4 C-7.236875 3.34 -6.47375 2.68 -5.6875 2 C-3 0 -3 0 0 0 Z " fill="#F0F1EF" transform="translate(129,152)"/>
<path d="M0 0 C1.32 0 2.64 0 4 0 C4.0814222 2.22855574 4.13938079 4.45797655 4.1875 6.6875 C4.23970703 8.54955078 4.23970703 8.54955078 4.29296875 10.44921875 C3.97972188 14.2457708 3.30757653 16.01467371 1 19 C-2.75047482 21.50031654 -4.55856266 21.53603554 -9 21 C-11.70703125 18.9609375 -11.70703125 18.9609375 -14 16 C-14.36771245 13.1612599 -14.48630804 10.98179849 -14.3125 8.1875 C-14.28994141 7.49462891 -14.26738281 6.80175781 -14.24414062 6.08789062 C-14.18562661 4.39098427 -14.0959548 2.69520139 -14 1 C-13.01 1 -12.02 1 -11 1 C-10.93941406 1.91523438 -10.87882813 2.83046875 -10.81640625 3.7734375 C-10.73261719 4.96195313 -10.64882812 6.15046875 -10.5625 7.375 C-10.48128906 8.55835938 -10.40007812 9.74171875 -10.31640625 10.9609375 C-10.18915064 13.91518901 -10.18915064 13.91518901 -9 16 C-6.66705225 16.04241723 -4.33297433 16.04092937 -2 16 C-0.00383446 14.00383446 -0.59016573 10.18298037 -0.4375 7.4375 C-0.39431641 6.72658203 -0.35113281 6.01566406 -0.30664062 5.28320312 C-0.20028223 3.52238088 -0.09961154 1.7612168 0 0 Z " fill="#B2663A" transform="translate(173,146)"/>
<path d="M0 0 C2.4375 1.75 2.4375 1.75 4 4 C4 5.32 4 6.64 4 8 C0.7 8 -2.6 8 -6 8 C-5.67 8.66 -5.34 9.32 -5 10 C-2.69 10 -0.38 10 2 10 C2 10.99 2 11.98 2 13 C1 14 1 14 -2.8125 14.375 C-6.2322054 14.33202345 -6.7866837 14.18665176 -9.5 11.8125 C-11.12724578 8.76141417 -11.69317418 7.37922411 -11 4 C-8.00375133 -0.43444803 -5.14731601 -0.73533086 0 0 Z " fill="#25262A" transform="translate(109,153)"/>
<path d="M0 0 C1.32 0 2.64 0 4 0 C2.35821735 4.77609498 -0.26546702 8.79382904 -3 13 C-1.68 13 -0.36 13 1 13 C1 12.01 1 11.02 1 10 C2.32 10 3.64 10 5 10 C5 10.99 5 11.98 5 13 C5.99 13 6.98 13 8 13 C8 14.32 8 15.64 8 17 C7.01 17 6.02 17 5 17 C5 18.32 5 19.64 5 21 C4.01 21 3.02 21 2 21 C2 19.68 2 18.36 2 17 C-1.63 17 -5.26 17 -9 17 C-8.02265971 12.11329853 -6.87254109 9.76736764 -4.1875 5.6875 C-3.15689453 4.08455078 -3.15689453 4.08455078 -2.10546875 2.44921875 C-1.41066406 1.64097656 -0.71585938 0.83273438 0 0 Z " fill="#2F3136" transform="translate(147,146)"/>
<path d="M0 0 C0.78375 0.04125 1.5675 0.0825 2.375 0.125 C2.705 1.445 3.035 2.765 3.375 4.125 C1.725 4.125 0.075 4.125 -1.625 4.125 C-1.625 5.115 -1.625 6.105 -1.625 7.125 C0.025 7.125 1.675 7.125 3.375 7.125 C3.375 8.115 3.375 9.105 3.375 10.125 C1.725 10.125 0.075 10.125 -1.625 10.125 C-1.625 13.755 -1.625 17.385 -1.625 21.125 C-2.945 21.125 -4.265 21.125 -5.625 21.125 C-5.625 17.495 -5.625 13.865 -5.625 10.125 C-6.285 10.125 -6.945 10.125 -7.625 10.125 C-7.625 9.135 -7.625 8.145 -7.625 7.125 C-6.965 7.125 -6.305 7.125 -5.625 7.125 C-5.50125 6.34125 -5.3775 5.5575 -5.25 4.75 C-4.40872422 1.21664174 -3.69833563 0.17611122 0 0 Z " fill="#252730" transform="translate(85.625,145.875)"/>
<path d="M0 0 C2.4375 0.375 2.4375 0.375 5 1 C5.33 1.66 5.66 2.32 6 3 C6.4125 2.505 6.825 2.01 7.25 1.5 C9 0 9 0 13 0 C12.690625 0.5775 12.38125 1.155 12.0625 1.75 C10.568611 4.75518351 10.568611 4.75518351 10 8 C11.85250004 11.23761134 11.85250004 11.23761134 14 14 C9.44615385 14.36923077 9.44615385 14.36923077 7.1875 12.5 C6.795625 12.005 6.40375 11.51 6 11 C5.5875 11.515625 5.175 12.03125 4.75 12.5625 C4.1725 13.036875 3.595 13.51125 3 14 C0.8125 13.6875 0.8125 13.6875 -1 13 C0.32 11.35 1.64 9.7 3 8 C2.690625 7.236875 2.38125 6.47375 2.0625 5.6875 C1.32106407 3.81210323 0.63771783 1.91315348 0 0 Z " fill="#242528" transform="translate(115,153)"/>
<path d="M0 0 C0.33 0.66 0.66 1.32 1 2 C2.6396875 1.938125 2.6396875 1.938125 4.3125 1.875 C8 2 8 2 11 4 C8.03 4 5.06 4 2 4 C2.33 4.66 2.66 5.32 3 6 C5.31 6 7.62 6 10 6 C10 6.99 10 7.98 10 9 C9 10 9 10 5.125 10.25 C2.49923745 10.20764899 1.28496525 10.16919812 -1 8.8125 C-2.34419875 6.37613976 -2.35131571 4.74026253 -2 2 C-1.34 1.34 -0.68 0.68 0 0 Z " fill="#23252C" transform="translate(101,157)"/>
<path d="M0 0 C0.99 0 1.98 0 3 0 C3.04898438 0.90363281 3.09796875 1.80726563 3.1484375 2.73828125 C3.22320312 3.91777344 3.29796875 5.09726563 3.375 6.3125 C3.44460937 7.48425781 3.51421875 8.65601563 3.5859375 9.86328125 C3.78613747 13.15699887 3.78613747 13.15699887 6 16 C6 16.99 6 17.98 6 19 C4.125 18.6875 4.125 18.6875 2 18 C-0.45391569 14.31912647 -0.22802759 11.55644412 -0.125 7.3125 C-0.11597656 6.61060547 -0.10695312 5.90871094 -0.09765625 5.18554688 C-0.07413704 3.45688475 -0.03826713 1.72839855 0 0 Z " fill="#9C440E" transform="translate(159,147)"/>
<path d="M0 0 C0.99 0 1.98 0 3 0 C3 6.6 3 13.2 3 20 C2.01 20 1.02 20 0 20 C0 13.4 0 6.8 0 0 Z " fill="#11111A" transform="translate(92,147)"/>
<path d="M0 0 C1.32 0 2.64 0 4 0 C4 4.62 4 9.24 4 14 C2.68 14 1.36 14 0 14 C0 9.38 0 4.76 0 0 Z " fill="#29292D" transform="translate(131,153)"/>
<path d="M0 0 C1.32 0 2.64 0 4 0 C2.63312778 3.98671063 0.84804907 6.88494633 -2 10 C-2.66 10 -3.32 10 -4 10 C-5.37310707 11.29233607 -6.71034824 12.62437146 -8 14 C-6.68501371 10.47458437 -5.15372679 7.35672864 -3.125 4.1875 C-2.38636719 3.00220703 -2.38636719 3.00220703 -1.6328125 1.79296875 C-1.09398437 1.20128906 -0.55515625 0.60960937 0 0 Z " fill="#353537" transform="translate(147,146)"/>
<path d="M0 0 C0.78375 0.04125 1.5675 0.0825 2.375 0.125 C2.705 1.445 3.035 2.765 3.375 4.125 C0.735 4.125 -1.905 4.125 -4.625 4.125 C-4.955 5.115 -5.285 6.105 -5.625 7.125 C-4.53409091 0.21590909 -4.53409091 0.21590909 0 0 Z " fill="#3B3B40" transform="translate(85.625,145.875)"/>
<path d="M0 0 C0.33 0.66 0.66 1.32 1 2 C2.6396875 1.938125 2.6396875 1.938125 4.3125 1.875 C8 2 8 2 11 4 C9.96939453 3.94779297 9.96939453 3.94779297 8.91796875 3.89453125 C8.01691406 3.86746094 7.11585937 3.84039062 6.1875 3.8125 C5.29417969 3.77769531 4.40085937 3.74289063 3.48046875 3.70703125 C0.58352485 4.04918998 -0.22555028 4.75393573 -2 7 C-2.125 4.625 -2.125 4.625 -2 2 C-1.34 1.34 -0.68 0.68 0 0 Z " fill="#101016" transform="translate(101,157)"/>
<path d="M0 0 C0.33 0.66 0.66 1.32 1 2 C0.01 2.33 -0.98 2.66 -2 3 C-2 2.34 -2 1.68 -2 1 C-8.27 1 -14.54 1 -21 1 C-21 0.67 -21 0.34 -21 0 C-18.43788925 -0.19569589 -15.87567609 -0.38180612 -13.3125 -0.5625 C-12.59126953 -0.61857422 -11.87003906 -0.67464844 -11.12695312 -0.73242188 C-7.25709571 -0.9974806 -3.7242933 -1.18921029 0 0 Z " fill="#C8C9C7" transform="translate(117,108)"/>
<path d="M0 0 C3 1 3 1 4.16796875 2.99609375 C4.50441406 3.80175781 4.84085938 4.60742188 5.1875 5.4375 C5.53167969 6.24058594 5.87585938 7.04367188 6.23046875 7.87109375 C7 10 7 10 7 12 C6.34 12 5.68 12 5 12 C3.3125 9.6875 3.3125 9.6875 2 7 C2.33 6.01 2.66 5.02 3 4 C2.01 3.67 1.02 3.34 0 3 C0 2.01 0 1.02 0 0 Z " fill="#A76A40" transform="translate(162,125)"/>
<path d="M0 0 C3 1 3 1 5 4 C5 4.99 5 5.98 5 7 C3.125 6.8125 3.125 6.8125 1 6 C-0.25 3.4375 -0.25 3.4375 -1 1 C-0.67 0.67 -0.34 0.34 0 0 Z " fill="#A0521D" transform="translate(160,159)"/>
<path d="M0 0 C0.33 0 0.66 0 1 0 C1 2.64 1 5.28 1 8 C0.67 7.34 0.34 6.68 0 6 C-1.98 6 -3.96 6 -6 6 C-6 5.01 -6 4.02 -6 3 C-4.02 3 -2.04 3 0 3 C0 2.01 0 1.02 0 0 Z " fill="#EEEEED" transform="translate(90,147)"/>
<path d="M0 0 C2.12038635 2.61514317 4.13091744 5.19637616 6 8 C4.35 8 2.7 8 1 8 C-0.42944945 5.64561267 -1.08661261 4.51967567 -0.625 1.75 C-0.41875 1.1725 -0.2125 0.595 0 0 Z " fill="#323436" transform="translate(123,159)"/>
<path d="M0 0 C0.33 0 0.66 0 1 0 C1.33 3.3 1.66 6.6 2 10 C1.01 10.33 0.02 10.66 -1 11 C-1.0270043 9.54176788 -1.04639787 8.08339325 -1.0625 6.625 C-1.07410156 5.81289062 -1.08570312 5.00078125 -1.09765625 4.1640625 C-1 2 -1 2 0 0 Z " fill="#B76030" transform="translate(108,60)"/>
<path d="M0 0 C2.12038635 2.61514317 4.13091744 5.19637616 6 8 C4.35 8 2.7 8 1 8 C-0.35439668 5.29120665 -0.06501451 2.99066732 0 0 Z " fill="#EEE5D4" transform="translate(110,99)"/>
<path d="M0 0 C2.97 0 5.94 0 9 0 C7.3125 1.5625 7.3125 1.5625 5 3 C2.25 2.6875 2.25 2.6875 0 2 C0 1.34 0 0.68 0 0 Z " fill="#D5D5D6" transform="translate(103,161)"/>
<path d="M0 0 C1 3 1 3 -0.25 5.6875 C-0.8275 6.450625 -1.405 7.21375 -2 8 C-2.99 8 -3.98 8 -5 8 C-3.62845496 5.04590299 -2.01136276 2.55991624 0 0 Z " fill="#171820" transform="translate(144,154)"/>
<path d="M0 0 C0 0.66 0 1.32 0 2 C-2.31 2 -4.62 2 -7 2 C-7 1.34 -7 0.68 -7 0 C-4.3333581 -1.33332095 -2.83319697 -0.67102033 0 0 Z " fill="#BFC0C1" transform="translate(109,157)"/>
<path d="M0 0 C1.98 0 3.96 0 6 0 C6 0.99 6 1.98 6 3 C4.02 3 2.04 3 0 3 C0 2.01 0 1.02 0 0 Z " fill="#232427" transform="translate(83,153)"/>
<path d="M0 0 C0.99 0.33 1.98 0.66 3 1 C3 2.32 3 3.64 3 5 C1.68 4.67 0.36 4.34 -1 4 C-0.67 2.68 -0.34 1.36 0 0 Z " fill="#303030" transform="translate(132,146)"/>
</svg>
